<svg width="40" height="37" viewBox="0 0 40 37" fill="none" xmlns="http://www.w3.org/2000/svg">
<path d="M16 27C17.1046 27 18 26.1046 18 25C18 23.8954 17.1046 23 16 23C14.8954 23 14 23.8954 14 25C14 26.1046 14.8954 27 16 27Z" fill="#D9D9D9"/>
<path d="M24 27C25.1046 27 26 26.1046 26 25C26 23.8954 25.1046 23 24 23C22.8954 23 22 23.8954 22 25C22 26.1046 22.8954 27 24 27Z" fill="#D9D9D9"/>
<path d="M20 5C21.1046 5 22 4.10457 22 3C22 1.89543 21.1046 1 20 1C18.8954 1 18 1.89543 18 3C18 4.10457 18.8954 5 20 5Z" fill="#D9D9D9"/>
<path d="M20 3V13" stroke="#D9D9D9" stroke-width="2"/>
<path d="M7 15C7 13.8954 7.89543 13 9 13H31C32.1046 13 33 13.8954 33 15V34C33 35.1046 32.1046 36 31 36H9C7.89543 36 7 35.1046 7 34V15Z" stroke="#D9D9D9" stroke-width="2"/>
<path d="M36 21.5C36 20.6716 36.6716 20 37.5 20C38.3284 20 39 20.6716 39 21.5V28.5C39 29.3284 38.3284 30 37.5 30C36.6716 30 36 29.3284 36 28.5V21.5Z" fill="#D9D9D9"/>
<path d="M1 21.5C1 20.6716 1.67157 20 2.5 20C3.32843 20 4 20.6716 4 21.5V28.5C4 29.3284 3.32843 30 2.5 30C1.67157 30 1 29.3284 1 28.5V21.5Z" fill="#D9D9D9"/>
<path d="M15.1992 18.718L13 13H27L24.8008 18.718C24.5037 19.4903 23.7616 20 22.9341 20H17.0659C16.2384 20 15.4963 19.4903 15.1992 18.718Z" fill="#D9D9D9" fill-opacity="0.37" stroke="#D9D9D9" stroke-width="2"/>
</svg>
