<svg width="33" height="32" viewBox="0 0 33 32" fill="none" xmlns="http://www.w3.org/2000/svg">
<path d="M8.54613 24.321L6.8973 24.3142L7.2536 22.5798C7.62197 20.7866 8.85537 19.2928 10.5464 18.5917C10.7362 18.513 10.9524 18.6167 11.0098 18.814L11.3743 20.0676C11.4542 20.3426 11.6482 20.5701 11.9071 20.6924L13.0807 21.2472C13.2663 21.3349 13.3338 21.5649 13.2251 21.7391C12.2179 23.352 10.4477 24.3288 8.54613 24.321Z" fill="#0F172A" fill-opacity="0.25"/>
<path d="M11.1761 18.4528V18.4528C8.72791 19.1373 6.96863 21.2792 6.77271 23.8138L6.71804 24.521L8.16014 24.4677C10.3912 24.3852 12.4075 23.1149 13.4452 21.1381V21.1381" stroke="#0F172A" stroke-width="1.2"/>
<path d="M22.9048 8.40167L23.0884 8.36157C24.6864 8.01258 26.0048 9.62506 25.3453 11.1219L25.2335 11.3757C24.4978 13.0455 23.3909 14.5256 21.9971 15.7033L16.1259 20.6643L12.0056 15.7879L17.7201 10.9594C19.2141 9.69702 20.9939 8.81897 22.9048 8.40167Z" stroke="#0F172A" stroke-width="1.2"/>
<path d="M21.9353 21.4361L22.6771 14.9195L16.5401 20.0347C16.3321 20.2081 16.2033 20.4584 16.1832 20.7284L15.9266 24.167C15.8632 25.0162 16.8225 25.5509 17.5115 25.0505L21.5294 22.1321C21.7563 21.9673 21.9036 21.7148 21.9353 21.4361Z" fill="#0F172A" fill-opacity="0.25"/>
<path d="M22.6771 14.9195L21.9353 21.4361C21.9036 21.7148 21.7563 21.9673 21.5294 22.1321L17.5115 25.0505C16.8225 25.5509 15.8632 25.0162 15.9266 24.167L16.2147 20.3059" stroke="#0F172A" stroke-width="1.2"/>
<path d="M11.397 10.5182L17.8495 10.8139L12.6572 15.4894C12.4259 15.6977 12.111 15.7864 11.8051 15.7295L8.19695 15.0582C7.37198 14.9047 7.09151 13.8646 7.72746 13.3172L10.6988 10.7593C10.8922 10.5928 11.142 10.5065 11.397 10.5182Z" fill="#0F172A" fill-opacity="0.25"/>
<path d="M17.8496 10.8139L11.397 10.5182C11.142 10.5065 10.8922 10.5928 10.6988 10.7593L7.72747 13.3172C7.09152 13.8646 7.37199 14.9047 8.19696 15.0582L12.2904 15.8198" stroke="#0F172A" stroke-width="1.2"/>
</svg>
