<svg width="45" height="45" viewBox="0 0 45 45" fill="none" xmlns="http://www.w3.org/2000/svg">
<path fill-rule="evenodd" clip-rule="evenodd" d="M22.5 45C34.9264 45 45 34.9264 45 22.5C45 10.0736 34.9264 0 22.5 0C10.0736 0 0 10.0736 0 22.5C0 34.9264 10.0736 45 22.5 45ZM8 13.875C8 12.2878 9.21777 11 10.7188 11H34.2812C35.7822 11 37 12.2878 37 13.875C37 14.7794 36.5979 15.6299 35.9125 16.175L23.5875 25.95C22.9418 26.4591 22.0582 26.4591 21.4125 25.95L9.0875 16.175C8.40215 15.6299 8 14.7794 8 13.875ZM8 30.1667V17.7083L20.325 27.4833C21.6164 28.5076 23.3836 28.5076 24.675 27.4833L37 17.7083V30.1667C37 32.281 35.3744 34 33.375 34H11.625C9.62559 34 8 32.281 8 30.1667Z" fill="#D9D9D9"/>
</svg>
