<svg width="20" height="20" viewBox="0 0 20 20" fill="none" xmlns="http://www.w3.org/2000/svg">
<path d="M18.9999 13.0327V16.9734C19.003 17.2631 18.943 17.55 18.8241 17.8144C18.7052 18.0788 18.5301 18.3144 18.3111 18.505C18.092 18.6956 17.8341 18.8367 17.555 18.9184C17.276 19.0002 16.9825 19.0208 16.6947 18.9788C12.7053 18.4683 8.99986 16.6502 6.16217 13.8108C3.32447 10.9715 1.51585 7.27233 1.02128 3.29626C0.979226 3.01043 0.999659 2.71893 1.08118 2.4417C1.1627 2.16447 1.30339 1.90805 1.49362 1.69C1.68385 1.47195 1.91912 1.29741 2.18334 1.17833C2.44756 1.05924 2.73449 0.998422 3.0245 1.00003H6.9202C7.16905 0.998527 7.40965 1.0889 7.59555 1.2537C7.78144 1.41851 7.89947 1.64606 7.92684 1.89245C8.02673 3.20659 8.36793 4.4913 8.93348 5.68273C9.03046 5.90837 9.04098 6.1616 8.96306 6.39446C8.88514 6.62731 8.72419 6.82361 8.51069 6.94616L7.64498 7.43749C7.5202 7.50585 7.41139 7.59981 7.32576 7.71316C7.24013 7.8265 7.17962 7.95666 7.14822 8.09503C7.11682 8.23339 7.11526 8.37682 7.14362 8.51583C7.17199 8.65485 7.22965 8.78628 7.31279 8.90146C8.30868 10.3546 9.56849 11.6095 11.0273 12.6015C11.1429 12.6843 11.2749 12.7417 11.4144 12.77C11.554 12.7983 11.698 12.7967 11.8369 12.7654C11.9758 12.7341 12.1065 12.6739 12.2202 12.5886C12.334 12.5033 12.4284 12.3949 12.497 12.2706L12.9902 11.4083C13.1206 11.1928 13.3275 11.034 13.5699 10.9635C13.8123 10.8929 14.0725 10.9156 14.2989 11.0272C15.495 11.5906 16.7847 11.9304 18.104 12.0299C18.3513 12.0572 18.5798 12.1748 18.7452 12.3599C18.9107 12.5451 19.0014 12.7848 18.9999 13.0327Z" stroke="#D9D9D9" stroke-width="2" stroke-linecap="round" stroke-linejoin="round"/>
</svg>
