<svg width="40" height="35" viewBox="0 0 40 35" fill="none" xmlns="http://www.w3.org/2000/svg">
<path d="M33 1H7C4.23858 1 2 3.23858 2 6V29C2 31.7614 4.23858 34 7 34H33C35.7614 34 38 31.7614 38 29V6C38 3.23858 35.7614 1 33 1Z" stroke="#D9D9D9" stroke-width="2"/>
<path d="M20.5 7C21.3284 7 22 6.32843 22 5.5C22 4.67157 21.3284 4 20.5 4C19.6716 4 19 4.67157 19 5.5C19 6.32843 19.6716 7 20.5 7Z" fill="#D9D9D9"/>
<path d="M26.5 7C27.3284 7 28 6.32843 28 5.5C28 4.67157 27.3284 4 26.5 4C25.6716 4 25 4.67157 25 5.5C25 6.32843 25.6716 7 26.5 7Z" fill="#D9D9D9"/>
<path d="M24.0541 26H6.94595C6.42351 26 6 26.4235 6 26.9459C6 27.4684 6.42351 27.8919 6.94595 27.8919H24.0541C24.5765 27.8919 25 27.4684 25 26.9459C25 26.4235 24.5765 26 24.0541 26Z" fill="#D9D9D9"/>
<path d="M32.5 7C33.3284 7 34 6.32843 34 5.5C34 4.67157 33.3284 4 32.5 4C31.6716 4 31 4.67157 31 5.5C31 6.32843 31.6716 7 32.5 7Z" fill="#D9D9D9"/>
<path d="M33.5541 26H27.8459C27.3235 26 26.9 26.4235 26.9 26.9459C26.9 27.4684 27.3235 27.8919 27.8459 27.8919H33.5541C34.0765 27.8919 34.5 27.4684 34.5 26.9459C34.5 26.4235 34.0765 26 33.5541 26Z" fill="#D9D9D9"/>
<path d="M7 13C7 11.8954 7.89543 11 9 11H31.5C32.6046 11 33.5 11.8954 33.5 13V20C33.5 21.1046 32.6046 22 31.5 22H9C7.89543 22 7 21.1046 7 20V13Z" fill="#D9D9D9" fill-opacity="0.37" stroke="#D9D9D9" stroke-width="2"/>
</svg>
