<svg width="17" height="16" viewBox="0 0 17 16" fill="none" xmlns="http://www.w3.org/2000/svg">
<path d="M1.46529 5.13807L7.99298 1.29825C8.30593 1.11416 8.69407 1.11416 9.00702 1.29825L15.5347 5.13807C16.192 5.52472 16.192 6.47528 15.5347 6.86193L9.00702 10.7018C8.69407 10.8858 8.30593 10.8858 7.99298 10.7018L1.46529 6.86193C0.807982 6.47528 0.807982 5.52472 1.46529 5.13807Z" fill="#D9D9D9" fill-opacity="0.37" stroke="#D9D9D9" stroke-width="1.2"/>
<path d="M15.6579 10L15.7312 10.0546C16.3203 10.4936 16.2509 11.3966 15.6016 11.7403L8.96789 15.2523C8.67521 15.4072 8.32479 15.4072 8.03211 15.2523L1.39837 11.7403C0.749117 11.3966 0.679693 10.4936 1.26877 10.0546L1.34211 10" stroke="#D9D9D9" stroke-width="1.2"/>
</svg>
