<svg width="40" height="38" viewBox="0 0 40 38" fill="none" xmlns="http://www.w3.org/2000/svg">
<path d="M4.68537 10.9928L19.0624 3.9968C19.3387 3.86239 19.6613 3.86239 19.9376 3.9968L34.3146 10.9928C35.0646 11.3578 35.0646 12.4263 34.3146 12.7912L19.9376 19.7872C19.6613 19.9216 19.3387 19.9216 19.0624 19.7872L4.68537 12.7912C3.93544 12.4263 3.93544 11.3578 4.68537 10.9928Z" fill="#D9D9D9" fill-opacity="0.37" stroke="#D9D9D9" stroke-width="2.2"/>
<path d="M4.9875 17.2974L4.14101 17.9359C3.5447 18.3856 3.63401 19.3066 4.30562 19.6334L19.0624 26.8142C19.3387 26.9486 19.6613 26.9486 19.9376 26.8142L35.1355 19.4188C35.6793 19.1542 35.8656 18.4711 35.5314 17.9671L35.0875 17.2974" stroke="#D9D9D9" stroke-width="2.2"/>
<path d="M4.9875 24.865L4.14101 25.5034C3.5447 25.9532 3.63401 26.8742 4.30562 27.201L19.0624 34.3818C19.3387 34.5162 19.6613 34.5162 19.9376 34.3818L35.1355 26.9863C35.6793 26.7217 35.8656 26.0387 35.5314 25.5346L35.0875 24.865" stroke="#D9D9D9" stroke-width="2.2"/>
</svg>
