<svg width="45" height="45" viewBox="0 0 45 45" fill="none" xmlns="http://www.w3.org/2000/svg">
<path d="M22.5 0C10.0706 0 0 10.0706 0 22.5C0 34.9294 10.0706 45 22.5 45C34.9294 45 45 34.9294 45 22.5C45 10.0706 34.9294 0 22.5 0ZM32.9335 15.3054C32.5978 18.8619 31.128 27.499 30.3841 31.4819C30.0665 33.1694 29.4496 33.7319 28.8508 33.7863C27.5444 33.9042 26.5554 32.9244 25.2853 32.0897C23.3075 30.7923 22.1825 29.9849 20.2681 28.7147C18.0454 27.254 19.4879 26.4466 20.749 25.131C21.0847 24.7863 26.8367 19.5514 26.9456 19.0796C26.9637 19.0161 26.9728 18.7984 26.8367 18.6804C26.7006 18.5625 26.5101 18.6079 26.374 18.6351C26.1744 18.6774 23.0111 20.7671 16.8841 24.9042C15.9889 25.5212 15.1754 25.8206 14.4435 25.8024C13.6361 25.7843 12.0937 25.3488 10.9415 24.9768C9.53528 24.5232 8.41028 24.2782 8.51008 23.498C8.55847 23.0927 9.11794 22.6784 10.1885 22.255C16.745 19.4002 21.1179 17.5161 23.3075 16.6028C29.5585 14.0081 30.8558 13.5544 31.6996 13.5363C31.8901 13.5363 32.2984 13.5817 32.5706 13.7994C32.7482 13.9556 32.8614 14.1722 32.8881 14.4073C32.9372 14.704 32.9524 15.0053 32.9335 15.3054Z" fill="#D9D9D9"/>
</svg>
